<?xml version="1.0" encoding="UTF-8"?>
<svg id="Layer_2" data-name="Layer 2" xmlns="http://www.w3.org/2000/svg" viewBox="0 0 266.37 138.91">
  <defs>
    <style>
      .cls-1 {
        fill: #fff;
      }
    </style>
  </defs>
  <g id="Layer_1-2" data-name="Layer 1">
    <g>
      <path class="cls-1" d="M66.2,130.44c0-3.05,1.74-4.95,4.97-4.95s5,1.9,5,4.95v6.68h-2.23v-3.42h-5.56v3.42h-2.18v-6.68ZM73.94,131.67v-1.24c0-1.83-.91-2.88-2.79-2.88s-2.77,1.05-2.77,2.88v1.24h5.56Z"/>
      <path class="cls-1" d="M80.48,131.41c0-3.42,2.51-5.93,6.07-5.93,2.98,0,5.23,1.76,5.87,4.36h-2.35c-.54-1.38-1.83-2.28-3.52-2.28-2.27,0-3.8,1.62-3.8,3.85s1.53,3.87,3.8,3.87c1.69,0,2.98-.92,3.52-2.3h2.35c-.64,2.6-2.89,4.36-5.87,4.36-3.56,0-6.07-2.51-6.07-5.93"/>
      <path class="cls-1" d="M106.17,138.91l-1.41-1.97c-.7.26-1.48.4-2.32.4-3.56,0-6.07-2.51-6.07-5.93s2.51-5.93,6.07-5.93,6.07,2.51,6.07,5.93c0,1.83-.72,3.4-1.93,4.46l2.14,3.03h-2.54ZM103.49,135.16l-1.78-2.47h2.58l.99,1.39c.61-.68.96-1.6.96-2.67,0-2.23-1.54-3.85-3.8-3.85s-3.8,1.62-3.8,3.85,1.53,3.87,3.8,3.87c.36,0,.72-.04,1.05-.12"/>
      <path class="cls-1" d="M112.82,132.58v-6.87h2.23v6.87c0,1.69.87,2.7,2.6,2.7s2.61-1.01,2.61-2.7v-6.87h2.18v6.87c0,2.91-1.71,4.76-4.78,4.76s-4.84-1.83-4.84-4.76"/>
      <path class="cls-1" d="M127.02,130.44c0-3.05,1.74-4.95,4.97-4.95s5,1.9,5,4.95v6.68h-2.23v-3.42h-5.56v3.42h-2.18v-6.68ZM134.76,131.67v-1.24c0-1.83-.91-2.88-2.79-2.88s-2.77,1.05-2.77,2.88v1.24h5.56Z"/>
      <path class="cls-1" d="M149.31,125.71h4.65c2.96,0,4.29,1.64,4.29,3.87s-1.32,3.87-4.29,3.87h-2.42v3.66h-2.23v-11.4ZM154,131.39c1.48,0,1.99-.77,1.99-1.81s-.51-1.79-1.99-1.79h-2.46v3.61h2.46Z"/>
      <path class="cls-1" d="M162.31,130.44c0-3.05,1.74-4.95,4.97-4.95s5,1.9,5,4.95v6.68h-2.23v-3.42h-5.56v3.42h-2.18v-6.68ZM170.05,131.67v-1.24c0-1.83-.91-2.88-2.79-2.88s-2.77,1.05-2.77,2.88v1.24h5.56Z"/>
      <path class="cls-1" d="M177.16,125.71h4.78c2.9,0,4.17,1.59,4.17,3.77,0,1.8-.85,3.03-2.39,3.54l2.81,4.1h-2.65l-2.42-3.85h-2.06v3.85h-2.23v-11.4ZM181.97,131.18c1.41,0,1.88-.73,1.88-1.71s-.47-1.69-1.88-1.69h-2.58v3.4h2.58Z"/>
      <polygon class="cls-1" points="190.88 125.71 193.11 125.71 193.11 130.7 197.19 125.71 200 125.71 195.15 131.31 200.17 137.11 197.29 137.11 193.11 131.99 193.11 137.11 190.88 137.11 190.88 125.71"/>
      <path class="cls-1" d="M179.38,94.05c-1.26-2.03-3.1-3.41-5.51-4.02-1.18-.25-2.34-.28-3.47-.08-1.3.22-2.09.67-3.16,1.19,0,0-1.08.53-5.21,2.11-4.88,1.87-13.5-.57-16.43-5.86-1.05-1.89-1.25-3.68-1.15-4.29,2.61-15.57-6.82-31.81-21.55-37.51-11.44-4.74-25.23-3.24-35.18,4.25-1.36.97-2.67,2.13-3.87,3.29-.54.5-1.07,1.03-1.53,1.61-.42.42-.77.88-1.15,1.34-17.02,22.92-1.98,57.31,29.56,56.51,7.85-.31,15.54-3.71,22.89-10.15.19-.15.46-.19.61,0,.04.04.08.04.12.11,3.44,2.8,9.66,6.5,17.94,8.14,1.53.12,4.01.32,5.54.44,10.29-.31,27.89-4.78,21.55-17.09M122.87,87.28c-9.65,14.09-31.52,6.05-30.9-10.3-.04-7.31,4.06-15.31,13.29-16.77,6.87-1.22,14.27.95,17.73,6.62,3.79,5.82,3.75,14.43-.11,20.44"/>
      <path class="cls-1" d="M133.72,20.5c-23.48-6.05-42.81-4.47-57.45,4.69-16.47,10.31-23.61,27.79-29.91,43.22-1.75,4.29-3.44,8.4-5.22,12.17l-19.43-32.93c-2.48-4.2-7.89-5.6-12.11-3.12-4.2,2.48-5.6,7.9-3.12,12.11l23.36,39.59c-1.74,1.29-3.64,2.31-5.77,3-4.01,1.3-8.53,1.44-13.44.44-4.78-.99-9.45,2.09-10.44,6.87-.99,4.78,2.09,9.46,6.87,10.44,3.33.69,6.6,1.03,9.78,1.03,4.4,0,8.65-.66,12.69-1.97,18.99-6.17,26.21-23.85,33.19-40.94,5.8-14.21,11.29-27.63,22.92-34.92,10.38-6.49,25.06-7.36,43.66-2.56,4.7,1.21,9.54-1.62,10.77-6.35,1.22-4.73-1.63-9.55-6.35-10.77"/>
      <path class="cls-1" d="M264.42,96.91c-3.09-3.91-8.77-4.57-12.67-1.48-2.24,1.77-6.81,4.7-12.14,4.42-7.71-.41-14.75-7.26-17.1-13.65-1.15-3.12-1.34-6.58-1.57-10.58-.3-5.33-.63-11.36-3.41-17.71-2.81-6.4-7.19-10.86-7.72-11.39-.26-.26-2.64-2.56-5.71-4.57-9.32-6.09-21.62-7.96-36.61-5.6-.18-12.76-1.65-22.57-9.44-30.28-1.95-1.93-4.17-3.59-6.62-4.95-4.36-2.41-9.85-.84-12.26,3.52-2.42,4.36-.84,9.85,3.52,12.26,1,.55,1.89,1.22,2.66,1.98,4.14,4.1,4.24,11.37,4.06,27.43l-.03,2.67c-.1,10.03-.08,20.42.06,30.9.06,4.94,4.09,8.91,9.02,8.91.04,0,.08,0,.12,0,4.98-.06,8.97-4.15,8.91-9.14-.11-8.43-.13-16.8-.09-24.97,11.82-2.33,20.84-1.54,26.83,2.38,1.41.92,2.64,2.06,2.9,2.3.31.33,2.52,2.71,3.87,5.79,1.47,3.36,1.68,7.11,1.92,11.46.27,4.76.57,10.16,2.65,15.82,4.28,11.63,16.46,24.54,33.07,25.43.55.03,1.1.04,1.65.04,7.83,0,15.81-2.92,22.64-8.33,3.91-3.09,4.57-8.77,1.48-12.67"/>
    </g>
  </g>
</svg>