<?xml version="1.0" encoding="UTF-8"?>
<svg id="Layer_2" data-name="Layer 2" xmlns="http://www.w3.org/2000/svg" xmlns:xlink="http://www.w3.org/1999/xlink" viewBox="0 0 3486.17 103.94">
  <defs>
    <style>
      .cls-1 {
        fill: #fff;
      }

      .cls-2 {
        clip-path: url(#clippath);
      }
    </style>
    <clipPath id="clippath">
      <path class="cls-1" d="M3445.91,19.19c-7.44,7.34-12.82,12.65-24.31,12.65s-16.87-5.31-24.31-12.65c-8.67-8.55-19.46-19.19-40.26-19.19s-31.58,10.64-40.25,19.19c-7.45,7.34-12.83,12.65-24.31,12.65s-16.86-5.31-24.31-12.65c-8.67-8.55-19.45-19.19-40.25-19.19s-31.59,10.64-40.25,19.19c-7.45,7.34-12.83,12.65-24.31,12.65s-16.86-5.31-24.31-12.65c-8.67-8.55-19.45-19.19-40.25-19.19s-31.59,10.64-40.25,19.19c-7.45,7.34-12.83,12.65-24.31,12.65s-16.86-5.31-24.31-12.65c-8.66-8.55-19.45-19.19-40.25-19.19s-31.58,10.64-40.25,19.19c-7.44,7.34-12.82,12.65-24.31,12.65s-16.86-5.31-24.31-12.65c-8.67-8.55-19.46-19.19-40.25-19.19s-31.59,10.64-40.25,19.19c-7.44,7.34-12.82,12.65-24.31,12.65s-16.86-5.31-24.31-12.65c-8.67-8.55-19.46-19.19-40.25-19.19s-31.59,10.64-40.25,19.19c-7.44,7.34-12.82,12.65-24.31,12.65s-16.86-5.31-24.31-12.65c-8.67-8.55-19.45-19.19-40.25-19.19s-31.58,10.64-40.25,19.19c-7.45,7.34-12.82,12.65-24.31,12.65s-16.86-5.31-24.31-12.65c-8.67-8.55-19.46-19.19-40.25-19.19s-31.58,10.64-40.25,19.19c-7.44,7.34-12.82,12.65-24.31,12.65s-16.86-5.31-24.31-12.65c-8.66-8.55-19.45-19.19-40.25-19.19s-31.58,10.64-40.25,19.19c-7.45,7.34-12.83,12.65-24.31,12.65s-16.86-5.31-24.31-12.65c-8.67-8.55-19.46-19.19-40.25-19.19s-31.58,10.64-40.25,19.19c-7.45,7.34-12.82,12.65-24.31,12.65s-16.86-5.31-24.31-12.65c-8.66-8.55-19.45-19.19-40.25-19.19s-31.58,10.64-40.25,19.19c-7.45,7.34-12.82,12.65-24.31,12.65s-16.86-5.31-24.31-12.65c-8.67-8.55-19.46-19.19-40.26-19.19s-31.58,10.64-40.25,19.19c-7.45,7.34-12.82,12.65-24.31,12.65s-16.86-5.31-24.31-12.65c-8.67-8.55-19.46-19.19-40.25-19.19s-31.59,10.64-40.25,19.19c-7.45,7.34-12.83,12.65-24.31,12.65s-16.86-5.31-24.31-12.65c-8.67-8.55-19.45-19.19-40.25-19.19s-31.59,10.64-40.25,19.19c-7.45,7.34-12.83,12.65-24.31,12.65s-16.86-5.31-24.31-12.65c-8.66-8.55-19.45-19.19-40.25-19.19s-31.58,10.64-40.25,19.19c-7.45,7.34-12.83,12.65-24.31,12.65s-16.86-5.31-24.31-12.65c-8.67-8.55-19.46-19.19-40.25-19.19s-31.58,10.64-40.25,19.19c-7.44,7.34-12.82,12.65-24.31,12.65s-16.86-5.31-24.31-12.65c-8.67-8.55-19.46-19.19-40.25-19.19s-31.59,10.64-40.25,19.19c-7.45,7.34-12.82,12.65-24.31,12.65s-16.86-5.31-24.31-12.65c-8.67-8.55-19.46-19.19-40.25-19.19s-31.59,10.64-40.25,19.19c-7.45,7.34-12.83,12.65-24.31,12.65s-16.86-5.31-24.31-12.65c-8.67-8.55-19.45-19.19-40.25-19.19s-31.59,10.64-40.25,19.19c-7.44,7.34-12.82,12.65-24.31,12.65s-16.86-5.31-24.31-12.65c-8.67-8.55-19.46-19.19-40.25-19.19s-31.59,10.64-40.25,19.19c-7.44,7.34-12.82,12.65-24.31,12.65s-16.86-5.31-24.31-12.65c-8.67-8.55-19.46-19.19-40.25-19.19s-31.59,10.64-40.26,19.19c-7.44,7.34-12.82,12.65-24.31,12.65s-16.86-5.31-24.31-12.65c-8.67-8.55-19.45-19.19-40.25-19.19s-31.58,10.64-40.25,19.19c-7.45,7.34-12.82,12.65-24.31,12.65s-16.86-5.31-24.31-12.65c-8.67-8.55-19.46-19.19-40.25-19.19s-31.58,10.64-40.25,19.19c-7.45,7.34-12.82,12.65-24.31,12.65s-16.86-5.31-24.31-12.65c-8.67-8.55-19.46-19.19-40.25-19.19s-31.58,10.64-40.25,19.19c-7.45,7.34-12.82,12.65-24.31,12.65s-16.86-5.31-24.31-12.65c-8.67-8.55-19.46-19.19-40.25-19.19s-31.59,10.64-40.25,19.19c-7.44,7.34-12.82,12.65-24.3,12.65s-16.86-5.31-24.31-12.65C160.7,10.64,149.91,0,129.11,0s-31.58,10.64-40.25,19.19c-7.44,7.34-12.82,12.65-24.31,12.65s-16.86-5.31-24.31-12.65C31.58,10.64,20.8,0,0,0v103.94h3486.17V0c-20.8,0-31.59,10.64-40.26,19.19Z"/>
    </clipPath>
  </defs>
  <g id="Layer_1-2" data-name="Layer 1">
    <g>
      <path class="cls-1" d="M3445.91,19.19c-7.44,7.34-12.82,12.65-24.31,12.65s-16.87-5.31-24.31-12.65c-8.67-8.55-19.46-19.19-40.26-19.19s-31.58,10.64-40.25,19.19c-7.45,7.34-12.83,12.65-24.31,12.65s-16.86-5.31-24.31-12.65c-8.67-8.55-19.45-19.19-40.25-19.19s-31.59,10.64-40.25,19.19c-7.45,7.34-12.83,12.65-24.31,12.65s-16.86-5.31-24.31-12.65c-8.67-8.55-19.45-19.19-40.25-19.19s-31.59,10.64-40.25,19.19c-7.45,7.34-12.83,12.65-24.31,12.65s-16.86-5.31-24.31-12.65c-8.66-8.55-19.45-19.19-40.25-19.19s-31.58,10.64-40.25,19.19c-7.44,7.34-12.82,12.65-24.31,12.65s-16.86-5.31-24.31-12.65c-8.67-8.55-19.46-19.19-40.25-19.19s-31.59,10.64-40.25,19.19c-7.44,7.34-12.82,12.65-24.31,12.65s-16.86-5.31-24.31-12.65c-8.67-8.55-19.46-19.19-40.25-19.19s-31.59,10.64-40.25,19.19c-7.44,7.34-12.82,12.65-24.31,12.65s-16.86-5.31-24.31-12.65c-8.67-8.55-19.45-19.19-40.25-19.19s-31.58,10.64-40.25,19.19c-7.45,7.34-12.82,12.65-24.31,12.65s-16.86-5.31-24.31-12.65c-8.67-8.55-19.46-19.19-40.25-19.19s-31.58,10.64-40.25,19.19c-7.44,7.34-12.82,12.65-24.31,12.65s-16.86-5.31-24.31-12.65c-8.66-8.55-19.45-19.19-40.25-19.19s-31.58,10.64-40.25,19.19c-7.45,7.34-12.83,12.65-24.31,12.65s-16.86-5.31-24.31-12.65c-8.67-8.55-19.46-19.19-40.25-19.19s-31.58,10.64-40.25,19.19c-7.45,7.34-12.82,12.65-24.31,12.65s-16.86-5.31-24.31-12.65c-8.66-8.55-19.45-19.19-40.25-19.19s-31.58,10.64-40.25,19.19c-7.45,7.34-12.82,12.65-24.31,12.65s-16.86-5.31-24.31-12.65c-8.67-8.55-19.46-19.19-40.26-19.19s-31.58,10.64-40.25,19.19c-7.45,7.34-12.82,12.65-24.31,12.65s-16.86-5.31-24.31-12.65c-8.67-8.55-19.46-19.19-40.25-19.19s-31.59,10.64-40.25,19.19c-7.45,7.34-12.83,12.65-24.31,12.65s-16.86-5.31-24.31-12.65c-8.67-8.55-19.45-19.19-40.25-19.19s-31.59,10.64-40.25,19.19c-7.45,7.34-12.83,12.65-24.31,12.65s-16.86-5.31-24.31-12.65c-8.66-8.55-19.45-19.19-40.25-19.19s-31.58,10.64-40.25,19.19c-7.45,7.34-12.83,12.65-24.31,12.65s-16.86-5.31-24.31-12.65c-8.67-8.55-19.46-19.19-40.25-19.19s-31.58,10.64-40.25,19.19c-7.44,7.34-12.82,12.65-24.31,12.65s-16.86-5.31-24.31-12.65c-8.67-8.55-19.46-19.19-40.25-19.19s-31.59,10.64-40.25,19.19c-7.45,7.34-12.82,12.65-24.31,12.65s-16.86-5.31-24.31-12.65c-8.67-8.55-19.46-19.19-40.25-19.19s-31.59,10.64-40.25,19.19c-7.45,7.34-12.83,12.65-24.31,12.65s-16.86-5.31-24.31-12.65c-8.67-8.55-19.45-19.19-40.25-19.19s-31.59,10.64-40.25,19.19c-7.44,7.34-12.82,12.65-24.31,12.65s-16.86-5.31-24.31-12.65c-8.67-8.55-19.46-19.19-40.25-19.19s-31.59,10.64-40.25,19.19c-7.44,7.34-12.82,12.65-24.31,12.65s-16.86-5.31-24.31-12.65c-8.67-8.55-19.46-19.19-40.25-19.19s-31.59,10.64-40.26,19.19c-7.44,7.34-12.82,12.65-24.31,12.65s-16.86-5.31-24.31-12.65c-8.67-8.55-19.45-19.19-40.25-19.19s-31.58,10.64-40.25,19.19c-7.45,7.34-12.82,12.65-24.31,12.65s-16.86-5.31-24.31-12.65c-8.67-8.55-19.46-19.19-40.25-19.19s-31.58,10.64-40.25,19.19c-7.45,7.34-12.82,12.65-24.31,12.65s-16.86-5.31-24.31-12.65c-8.67-8.55-19.46-19.19-40.25-19.19s-31.58,10.64-40.25,19.19c-7.45,7.34-12.82,12.65-24.31,12.65s-16.86-5.31-24.31-12.65c-8.67-8.55-19.46-19.19-40.25-19.19s-31.59,10.64-40.25,19.19c-7.44,7.34-12.82,12.65-24.3,12.65s-16.86-5.31-24.31-12.65C160.7,10.64,149.91,0,129.11,0s-31.58,10.64-40.25,19.19c-7.44,7.34-12.82,12.65-24.31,12.65s-16.86-5.31-24.31-12.65C31.58,10.64,20.8,0,0,0v103.94h3486.17V0c-20.8,0-31.59,10.64-40.26,19.19Z"/>
      <g class="cls-2">
        <rect class="cls-1" x="-.92" y="-.04" width="3488" height="104"/>
      </g>
    </g>
  </g>
</svg>