<?xml version="1.0" encoding="UTF-8"?>
<svg id="Layer_2" data-name="Layer 2" xmlns="http://www.w3.org/2000/svg" viewBox="0 0 1849.29 409.94">
  <defs>
    <style>
      .cls-1 {
        fill: #fff;
      }
    </style>
  </defs>
  <g id="objects">
    <g>
      <path class="cls-1" d="M263.83,189.56l-3.31,26.58c-.56,4.44-4.32,7.78-8.78,7.78h-43.05v111.13c-4.54.41-9.14.62-13.79.62-10.4,0-20.55-1.04-30.36-3.02v-108.73h-33.11c-3.04,0-5.52-2.49-5.52-5.54v-33.26c0-3.05,2.48-5.54,5.52-5.54h33.11v-49.88c0-30.61,24.71-55.42,55.2-55.42h38.63c3.04,0,5.52,2.49,5.52,5.54v33.26c0,3.05-2.48,5.54-5.52,5.54h-27.6c-12.19,0-22.07,9.92-22.07,22.17v38.8h46.36c5.32,0,9.43,4.68,8.78,9.98Z"/>
      <path class="cls-1" d="M362.28,0H47.65C21.34,0,0,21.34,0,47.65v314.63c0,26.31,21.34,47.65,47.65,47.65h314.63c26.31,0,47.65-21.34,47.65-47.65V47.65c0-26.31-21.34-47.65-47.65-47.65ZM390.87,362.28c0,15.76-12.83,28.59-28.59,28.59H47.65c-15.76,0-28.59-12.83-28.59-28.59V47.65c0-15.76,12.83-28.59,28.59-28.59h314.63c15.76,0,28.59,12.83,28.59,28.59v314.63Z"/>
    </g>
    <g>
      <path class="cls-1" d="M1218.44,100.75h-107.81c-27.78,0-50.31,22.53-50.31,50.31v107.81c0,27.78,22.53,50.31,50.31,50.31h107.81c27.78,0,50.31-22.53,50.31-50.31v-107.81c0-27.78-22.53-50.31-50.31-50.31ZM1250.78,255.28c0,19.84-16.1,35.94-35.94,35.94h-100.62c-19.84,0-35.94-16.1-35.94-35.94v-100.62c0-19.84,16.1-35.94,35.94-35.94h100.62c19.84,0,35.94,16.1,35.94,35.94v100.62Z"/>
      <path class="cls-1" d="M1164.54,151.06c-29.75,0-53.9,24.15-53.9,53.9s24.15,53.9,53.9,53.9,53.9-24.15,53.9-53.9-24.15-53.9-53.9-53.9ZM1164.54,240.9c-19.8,0-35.94-16.14-35.94-35.94s16.14-35.94,35.94-35.94,35.94,16.14,35.94,35.94-16.14,35.94-35.94,35.94Z"/>
      <path class="cls-1" d="M1222.03,158.25c-5.94,0-10.78-4.84-10.78-10.78s4.84-10.78,10.78-10.78,10.78,4.84,10.78,10.78-4.84,10.78-10.78,10.78Z"/>
      <path class="cls-1" d="M1321.65,0h-314.63c-26.31,0-47.65,21.34-47.65,47.65v314.63c0,26.31,21.34,47.65,47.65,47.65h314.63c26.31,0,47.65-21.34,47.65-47.65V47.65c0-26.31-21.34-47.65-47.65-47.65ZM1350.24,362.28c0,15.76-12.83,28.59-28.59,28.59h-314.63c-15.76,0-28.59-12.83-28.59-28.59V47.65c0-15.76,12.83-28.59,28.59-28.59h314.63c15.76,0,28.59,12.83,28.59,28.59v314.63Z"/>
    </g>
    <g>
      <path class="cls-1" d="M1729.95,120.78h-171.24c-16.92,0-30.64,13.72-30.64,30.63v107.1c0,16.92,13.72,30.63,30.64,30.63h171.24c16.91,0,30.63-13.71,30.63-30.63v-107.1c0-16.91-13.72-30.63-30.63-30.63ZM1671.83,212.36l-47.62,23.8c-5.5,2.75-11.96-1.24-11.96-7.38v-47.6c0-6.14,6.47-10.13,11.96-7.39l47.62,23.8c6.08,3.04,6.08,11.73,0,14.77Z"/>
      <path class="cls-1" d="M1801.64,0h-314.63c-26.31,0-47.65,21.34-47.65,47.65v314.63c0,26.31,21.34,47.65,47.65,47.65h314.63c26.31,0,47.65-21.34,47.65-47.65V47.65c0-26.31-21.34-47.65-47.65-47.65ZM1830.23,362.28c0,15.76-12.83,28.59-28.59,28.59h-314.63c-15.76,0-28.59-12.83-28.59-28.59V47.65c0-15.76,12.83-28.59,28.59-28.59h314.63c15.76,0,28.59,12.83,28.59,28.59v314.63Z"/>
    </g>
    <g>
      <path class="cls-1" d="M842.07,0h-314.63c-26.31,0-47.65,21.34-47.65,47.65v314.63c0,26.31,21.34,47.65,47.65,47.65h314.63c26.31,0,47.65-21.34,47.65-47.65V47.65c0-26.31-21.34-47.65-47.65-47.65ZM870.66,362.28c0,15.76-12.83,28.59-28.59,28.59h-314.63c-15.76,0-28.59-12.83-28.59-28.59V47.65c0-15.76,12.83-28.59,28.59-28.59h314.63c15.76,0,28.59,12.83,28.59,28.59v314.63Z"/>
      <path class="cls-1" d="M713.42,186.72l80.37-85.96h-30.52l-63.08,67.48-48.31-67.48h-83.48l84.5,118.04-84.5,90.39h30.52l67.22-71.9,51.47,71.9h83.48l-87.67-122.46ZM611.42,122.86h29.1l117.56,164.21h-29.1l-117.56-164.21Z"/>
    </g>
  </g>
</svg>